<mxfile host="app.diagrams.net" modified="2023-05-02T01:42:00.884Z" agent="Mozilla/5.0 (Windows NT 10.0; Win64; x64) AppleWebKit/537.36 (KHTML, like Gecko) Chrome/112.0.0.0 Safari/537.36" etag="QxK9f7Ejp6vtwujDR-TU" version="21.2.3" type="device">
  <diagram name="Page-1" id="75sqJvkqCT_YvU8c5xRD">
    <mxGraphModel dx="1173" dy="603" grid="1" gridSize="10" guides="1" tooltips="1" connect="1" arrows="1" fold="1" page="1" pageScale="1" pageWidth="850" pageHeight="1100" math="0" shadow="0">
      <root>
        <mxCell id="0" />
        <mxCell id="1" parent="0" />
        <mxCell id="jq3C0dGj3O8HrgGFiJko-1" value="&lt;font style=&quot;font-size: 18px;&quot;&gt;Emotion Music Recommendations System&lt;/font&gt;&lt;span id=&quot;docs-internal-guid-dc7dbc47-7fff-0d1e-ab08-2b6fa9a25c18&quot;&gt;&lt;/span&gt;" style="ellipse;whiteSpace=wrap;html=1;aspect=fixed;" parent="1" vertex="1">
          <mxGeometry x="340" y="350" width="240" height="240" as="geometry" />
        </mxCell>
        <mxCell id="QMQYomuBGch182ric8O7-4" style="edgeStyle=orthogonalEdgeStyle;rounded=0;orthogonalLoop=1;jettySize=auto;html=1;entryX=-0.008;entryY=0.413;entryDx=0;entryDy=0;entryPerimeter=0;" edge="1" parent="1" source="jq3C0dGj3O8HrgGFiJko-2" target="jq3C0dGj3O8HrgGFiJko-1">
          <mxGeometry relative="1" as="geometry" />
        </mxCell>
        <mxCell id="jq3C0dGj3O8HrgGFiJko-2" value="&lt;font style=&quot;font-size: 11px;&quot; face=&quot;Tahoma&quot;&gt;&lt;font style=&quot;&quot;&gt;&lt;font style=&quot;&quot;&gt;Web&lt;span style=&quot;box-sizing: border-box; color: rgb(53, 55, 64); background-color: var(--green-100);&quot; data-offset-key=&quot;3qlg5-518-0&quot;&gt;cam&lt;/span&gt;&lt;/font&gt;&lt;span style=&quot;box-sizing: border-box; color: rgb(53, 55, 64); background-color: var(--green-100);&quot; data-offset-key=&quot;3qlg5-519-0&quot;&gt;:&lt;/span&gt;&lt;/font&gt;&lt;span style=&quot;box-sizing: border-box; color: rgb(53, 55, 64); background-color: var(--green-100);&quot; data-offset-key=&quot;3qlg5-520-0&quot;&gt;&lt;br&gt;&lt;br&gt;&lt;/span&gt;&lt;font style=&quot;&quot;&gt;&lt;span style=&quot;box-sizing: border-box; color: rgb(53, 55, 64); background-color: var(--green-100);&quot; data-offset-key=&quot;3qlg5-521-0&quot;&gt;A&lt;/span&gt;&lt;span style=&quot;box-sizing: border-box; color: rgb(53, 55, 64); background-color: var(--green-100);&quot; data-offset-key=&quot;3qlg5-522-0&quot;&gt; webcam&lt;/span&gt;&lt;span style=&quot;box-sizing: border-box; color: rgb(53, 55, 64); background-color: var(--green-100);&quot; data-offset-key=&quot;3qlg5-523-0&quot;&gt; captures&lt;/span&gt;&lt;span style=&quot;box-sizing: border-box; color: rgb(53, 55, 64); background-color: var(--green-100);&quot; data-offset-key=&quot;3qlg5-524-0&quot;&gt; the&lt;/span&gt;&lt;span style=&quot;box-sizing: border-box; color: rgb(53, 55, 64); background-color: var(--green-100);&quot; data-offset-key=&quot;3qlg5-525-0&quot;&gt; user&lt;/span&gt;&lt;span style=&quot;box-sizing: border-box; color: rgb(53, 55, 64); background-color: var(--green-100);&quot; data-offset-key=&quot;3qlg5-526-0&quot;&gt;â€™&lt;/span&gt;&lt;span style=&quot;box-sizing: border-box; color: rgb(53, 55, 64); background-color: var(--green-100);&quot; data-offset-key=&quot;3qlg5-527-0&quot;&gt;s&lt;/span&gt;&lt;span style=&quot;box-sizing: border-box; color: rgb(53, 55, 64); background-color: var(--green-100);&quot; data-offset-key=&quot;3qlg5-528-0&quot;&gt; facial&lt;/span&gt;&lt;span style=&quot;box-sizing: border-box; color: rgb(53, 55, 64); background-color: var(--green-100);&quot; data-offset-key=&quot;3qlg5-529-0&quot;&gt; expressions&lt;/span&gt;&lt;span style=&quot;box-sizing: border-box; color: rgb(53, 55, 64); background-color: var(--green-100);&quot; data-offset-key=&quot;3qlg5-530-0&quot;&gt; and&lt;/span&gt;&lt;span style=&quot;box-sizing: border-box; color: rgb(53, 55, 64); background-color: var(--green-100);&quot; data-offset-key=&quot;3qlg5-531-0&quot;&gt; sends&lt;/span&gt;&lt;span style=&quot;box-sizing: border-box; color: rgb(53, 55, 64); background-color: var(--green-100);&quot; data-offset-key=&quot;3qlg5-532-0&quot;&gt; the&lt;/span&gt;&lt;span style=&quot;box-sizing: border-box; color: rgb(53, 55, 64); background-color: var(--green-100);&quot; data-offset-key=&quot;3qlg5-533-0&quot;&gt; video&lt;/span&gt;&lt;span style=&quot;box-sizing: border-box; color: rgb(53, 55, 64); background-color: var(--green-100);&quot; data-offset-key=&quot;3qlg5-534-0&quot;&gt; feed&lt;/span&gt;&lt;span style=&quot;box-sizing: border-box; color: rgb(53, 55, 64); background-color: var(--green-100);&quot; data-offset-key=&quot;3qlg5-535-0&quot;&gt; to&lt;/span&gt;&lt;span style=&quot;box-sizing: border-box; color: rgb(53, 55, 64); background-color: var(--green-100);&quot; data-offset-key=&quot;3qlg5-536-0&quot;&gt; the&lt;/span&gt;&lt;span style=&quot;box-sizing: border-box; color: rgb(53, 55, 64); background-color: var(--green-100);&quot; data-offset-key=&quot;3qlg5-537-0&quot;&gt; model&lt;/span&gt;&lt;span style=&quot;box-sizing: border-box; color: rgb(53, 55, 64); background-color: var(--green-100);&quot; data-offset-key=&quot;3qlg5-538-0&quot;&gt; for&lt;/span&gt;&lt;span style=&quot;box-sizing: border-box; color: rgb(53, 55, 64); background-color: var(--green-100);&quot; data-offset-key=&quot;3qlg5-539-0&quot;&gt; analysis&lt;/span&gt;&lt;span style=&quot;box-sizing: border-box; color: rgb(53, 55, 64); background-color: var(--green-100);&quot; data-offset-key=&quot;3qlg5-540-0&quot;&gt;.&lt;/span&gt;&lt;/font&gt;&lt;/font&gt;" style="rounded=0;whiteSpace=wrap;html=1;align=center;" parent="1" vertex="1">
          <mxGeometry x="50" y="380" width="170" height="140" as="geometry" />
        </mxCell>
        <mxCell id="jq3C0dGj3O8HrgGFiJko-3" value="&lt;div style=&quot;&quot;&gt;&lt;font face=&quot;Tahoma&quot;&gt;&lt;font style=&quot;font-size: 11px; background-color: initial;&quot;&gt;Spotify&lt;span style=&quot;box-sizing: border-box; color: rgb(53, 55, 64); background-color: var(--green-100);&quot; data-offset-key=&quot;3qlg5-588-0&quot;&gt; API&lt;/span&gt;&lt;span style=&quot;box-sizing: border-box; color: rgb(53, 55, 64); background-color: var(--green-100);&quot; data-offset-key=&quot;3qlg5-589-0&quot;&gt; Wra&lt;/span&gt;&lt;span style=&quot;box-sizing: border-box; color: rgb(53, 55, 64); background-color: var(--green-100);&quot; data-offset-key=&quot;3qlg5-590-0&quot;&gt;pper&lt;/span&gt;&lt;/font&gt;&lt;span style=&quot;font-size: 11px; background-color: var(--green-100); box-sizing: border-box; color: rgb(53, 55, 64);&quot; data-offset-key=&quot;3qlg5-591-0&quot;&gt;:&lt;/span&gt;&lt;/font&gt;&lt;/div&gt;&lt;font style=&quot;&quot; face=&quot;Tahoma&quot;&gt;&lt;div style=&quot;&quot;&gt;&lt;font color=&quot;#353740&quot;&gt;&lt;span style=&quot;font-size: 11px;&quot;&gt;&lt;br&gt;&lt;/span&gt;&lt;/font&gt;&lt;/div&gt;&lt;span style=&quot;font-size: 11px; box-sizing: border-box; color: rgb(53, 55, 64); background-color: var(--green-100);&quot; data-offset-key=&quot;3qlg5-593-0&quot;&gt;&lt;div style=&quot;&quot;&gt;&lt;span style=&quot;background-color: var(--green-100); box-sizing: border-box;&quot; data-offset-key=&quot;3qlg5-593-0&quot;&gt;Spot&lt;/span&gt;&lt;span style=&quot;background-color: var(--green-100); box-sizing: border-box;&quot; data-offset-key=&quot;3qlg5-594-0&quot;&gt;ify&lt;/span&gt;&lt;span style=&quot;background-color: var(--green-100); box-sizing: border-box;&quot; data-offset-key=&quot;3qlg5-595-0&quot;&gt; provides&lt;/span&gt;&lt;span style=&quot;background-color: var(--green-100); box-sizing: border-box;&quot; data-offset-key=&quot;3qlg5-596-0&quot;&gt; a&lt;/span&gt;&lt;span style=&quot;background-color: var(--green-100); box-sizing: border-box;&quot; data-offset-key=&quot;3qlg5-597-0&quot;&gt; simple&lt;/span&gt;&lt;span style=&quot;background-color: var(--green-100); box-sizing: border-box;&quot; data-offset-key=&quot;3qlg5-598-0&quot;&gt; API&lt;/span&gt;&lt;span style=&quot;background-color: var(--green-100); box-sizing: border-box;&quot; data-offset-key=&quot;3qlg5-599-0&quot;&gt; wrapper&lt;/span&gt;&lt;span style=&quot;background-color: var(--green-100); box-sizing: border-box;&quot; data-offset-key=&quot;3qlg5-600-0&quot;&gt; which&lt;/span&gt;&lt;span style=&quot;background-color: var(--green-100); box-sizing: border-box;&quot; data-offset-key=&quot;3qlg5-601-0&quot;&gt; can&lt;/span&gt;&lt;span style=&quot;background-color: var(--green-100); box-sizing: border-box;&quot; data-offset-key=&quot;3qlg5-602-0&quot;&gt; be&lt;/span&gt;&lt;span style=&quot;background-color: var(--green-100); box-sizing: border-box;&quot; data-offset-key=&quot;3qlg5-603-0&quot;&gt; used&lt;/span&gt;&lt;span style=&quot;background-color: var(--green-100); box-sizing: border-box;&quot; data-offset-key=&quot;3qlg5-604-0&quot;&gt; to&lt;/span&gt;&lt;span style=&quot;background-color: var(--green-100); box-sizing: border-box;&quot; data-offset-key=&quot;3qlg5-605-0&quot;&gt; fetch&lt;/span&gt;&lt;span style=&quot;background-color: var(--green-100); box-sizing: border-box;&quot; data-offset-key=&quot;3qlg5-606-0&quot;&gt; play&lt;/span&gt;&lt;span style=&quot;background-color: var(--green-100); box-sizing: border-box;&quot; data-offset-key=&quot;3qlg5-607-0&quot;&gt;lists&lt;/span&gt;&lt;span style=&quot;background-color: var(--green-100); box-sizing: border-box;&quot; data-offset-key=&quot;3qlg5-608-0&quot;&gt; based&lt;/span&gt;&lt;span style=&quot;background-color: var(--green-100); box-sizing: border-box;&quot; data-offset-key=&quot;3qlg5-609-0&quot;&gt; on&lt;/span&gt;&lt;span style=&quot;background-color: var(--green-100); box-sizing: border-box;&quot; data-offset-key=&quot;3qlg5-610-0&quot;&gt; emotion&lt;/span&gt;&lt;span style=&quot;background-color: var(--green-100); box-sizing: border-box;&quot; data-offset-key=&quot;3qlg5-611-0&quot;&gt;.&lt;/span&gt;&lt;/div&gt;&lt;/span&gt;&lt;/font&gt;&lt;span style=&quot;box-sizing: border-box; background-color: var(--green-100); font-size: 16px;&quot; data-offset-key=&quot;3qlg5-612-0&quot;&gt;&lt;div style=&quot;&quot;&gt;&lt;font face=&quot;ColfaxAI, helvetica, sans-serif&quot; color=&quot;#353740&quot;&gt;&lt;br&gt;&lt;/font&gt;&lt;/div&gt;&lt;/span&gt;" style="rounded=0;whiteSpace=wrap;html=1;" parent="1" vertex="1">
          <mxGeometry x="50" y="570" width="180" height="160" as="geometry" />
        </mxCell>
        <mxCell id="jq3C0dGj3O8HrgGFiJko-4" value="&lt;font face=&quot;Tahoma&quot; style=&quot;font-size: 11px;&quot;&gt;&lt;font style=&quot;&quot;&gt;Em&lt;span style=&quot;box-sizing: border-box; color: rgb(53, 55, 64); background-color: var(--green-100);&quot; data-offset-key=&quot;3qlg5-546-0&quot;&gt;otion&lt;/span&gt;&lt;span style=&quot;box-sizing: border-box; color: rgb(53, 55, 64); background-color: var(--green-100);&quot; data-offset-key=&quot;3qlg5-547-0&quot;&gt; &lt;br&gt;Recogn&lt;/span&gt;&lt;span style=&quot;box-sizing: border-box; color: rgb(53, 55, 64); background-color: var(--green-100);&quot; data-offset-key=&quot;3qlg5-548-0&quot;&gt;ition&lt;/span&gt;&lt;span style=&quot;box-sizing: border-box; color: rgb(53, 55, 64); background-color: var(--green-100);&quot; data-offset-key=&quot;3qlg5-549-0&quot;&gt; Model&lt;/span&gt;&lt;span style=&quot;box-sizing: border-box; color: rgb(53, 55, 64); background-color: var(--green-100);&quot; data-offset-key=&quot;3qlg5-550-0&quot;&gt;:&lt;br&gt;&lt;/span&gt;&lt;/font&gt;&lt;span style=&quot;box-sizing: border-box; color: rgb(53, 55, 64); background-color: var(--green-100);&quot; data-offset-key=&quot;3qlg5-551-0&quot;&gt;&lt;br&gt;&lt;/span&gt;&lt;span style=&quot;box-sizing: border-box; color: rgb(53, 55, 64); background-color: var(--green-100);&quot; data-offset-key=&quot;3qlg5-552-0&quot;&gt;The&lt;/span&gt;&lt;span style=&quot;box-sizing: border-box; color: rgb(53, 55, 64); background-color: var(--green-100);&quot; data-offset-key=&quot;3qlg5-553-0&quot;&gt; emotion&lt;/span&gt;&lt;span style=&quot;box-sizing: border-box; color: rgb(53, 55, 64); background-color: var(--green-100);&quot; data-offset-key=&quot;3qlg5-554-0&quot;&gt; recognition&lt;/span&gt;&lt;span style=&quot;box-sizing: border-box; color: rgb(53, 55, 64); background-color: var(--green-100);&quot; data-offset-key=&quot;3qlg5-555-0&quot;&gt; model&lt;/span&gt;&lt;span style=&quot;box-sizing: border-box; color: rgb(53, 55, 64); background-color: var(--green-100);&quot; data-offset-key=&quot;3qlg5-556-0&quot;&gt; is&lt;/span&gt;&lt;span style=&quot;box-sizing: border-box; color: rgb(53, 55, 64); background-color: var(--green-100);&quot; data-offset-key=&quot;3qlg5-557-0&quot;&gt; a&lt;/span&gt;&lt;span style=&quot;box-sizing: border-box; color: rgb(53, 55, 64); background-color: var(--green-100);&quot; data-offset-key=&quot;3qlg5-558-0&quot;&gt; Ker&lt;/span&gt;&lt;span style=&quot;box-sizing: border-box; color: rgb(53, 55, 64); background-color: var(--green-100);&quot; data-offset-key=&quot;3qlg5-559-0&quot;&gt;as&lt;/span&gt;&lt;span style=&quot;box-sizing: border-box; color: rgb(53, 55, 64); background-color: var(--green-100);&quot; data-offset-key=&quot;3qlg5-560-0&quot;&gt;/&lt;/span&gt;&lt;span style=&quot;box-sizing: border-box; color: rgb(53, 55, 64); background-color: var(--green-100);&quot; data-offset-key=&quot;3qlg5-561-0&quot;&gt;T&lt;/span&gt;&lt;span style=&quot;box-sizing: border-box; color: rgb(53, 55, 64); background-color: var(--green-100);&quot; data-offset-key=&quot;3qlg5-562-0&quot;&gt;ensor&lt;/span&gt;&lt;span style=&quot;box-sizing: border-box; color: rgb(53, 55, 64); background-color: var(--green-100);&quot; data-offset-key=&quot;3qlg5-563-0&quot;&gt;Flow&lt;/span&gt;&lt;span style=&quot;box-sizing: border-box; color: rgb(53, 55, 64); background-color: var(--green-100);&quot; data-offset-key=&quot;3qlg5-564-0&quot;&gt; model&lt;/span&gt;&lt;span style=&quot;box-sizing: border-box; color: rgb(53, 55, 64); background-color: var(--green-100);&quot; data-offset-key=&quot;3qlg5-565-0&quot;&gt; which&lt;/span&gt;&lt;span style=&quot;box-sizing: border-box; color: rgb(53, 55, 64); background-color: var(--green-100);&quot; data-offset-key=&quot;3qlg5-566-0&quot;&gt; is&lt;/span&gt;&lt;span style=&quot;box-sizing: border-box; color: rgb(53, 55, 64); background-color: var(--green-100);&quot; data-offset-key=&quot;3qlg5-567-0&quot;&gt; trained&lt;/span&gt;&lt;span style=&quot;box-sizing: border-box; color: rgb(53, 55, 64); background-color: var(--green-100);&quot; data-offset-key=&quot;3qlg5-568-0&quot;&gt; on&lt;/span&gt;&lt;span style=&quot;box-sizing: border-box; color: rgb(53, 55, 64); background-color: var(--green-100);&quot; data-offset-key=&quot;3qlg5-569-0&quot;&gt; F&lt;/span&gt;&lt;span style=&quot;box-sizing: border-box; color: rgb(53, 55, 64); background-color: var(--green-100);&quot; data-offset-key=&quot;3qlg5-570-0&quot;&gt;ER&lt;/span&gt;&lt;span style=&quot;box-sizing: border-box; color: rgb(53, 55, 64); background-color: var(--green-100);&quot; data-offset-key=&quot;3qlg5-571-0&quot;&gt;2013&lt;/span&gt;&lt;span style=&quot;box-sizing: border-box; color: rgb(53, 55, 64); background-color: var(--green-100);&quot; data-offset-key=&quot;3qlg5-572-0&quot;&gt; dataset&lt;/span&gt;&lt;span style=&quot;box-sizing: border-box; color: rgb(53, 55, 64); background-color: var(--green-100);&quot; data-offset-key=&quot;3qlg5-573-0&quot;&gt;.&lt;/span&gt;&lt;span style=&quot;box-sizing: border-box; color: rgb(53, 55, 64); background-color: var(--green-100);&quot; data-offset-key=&quot;3qlg5-574-0&quot;&gt; It&lt;/span&gt;&lt;span style=&quot;box-sizing: border-box; color: rgb(53, 55, 64); background-color: var(--green-100);&quot; data-offset-key=&quot;3qlg5-575-0&quot;&gt; analyses&lt;/span&gt;&lt;span style=&quot;box-sizing: border-box; color: rgb(53, 55, 64); background-color: var(--green-100);&quot; data-offset-key=&quot;3qlg5-576-0&quot;&gt; the&lt;/span&gt;&lt;span style=&quot;box-sizing: border-box; color: rgb(53, 55, 64); background-color: var(--green-100);&quot; data-offset-key=&quot;3qlg5-577-0&quot;&gt; video&lt;/span&gt;&lt;span style=&quot;box-sizing: border-box; color: rgb(53, 55, 64); background-color: var(--green-100);&quot; data-offset-key=&quot;3qlg5-578-0&quot;&gt; feed&lt;/span&gt;&lt;span style=&quot;box-sizing: border-box; color: rgb(53, 55, 64); background-color: var(--green-100);&quot; data-offset-key=&quot;3qlg5-579-0&quot;&gt; and&lt;/span&gt;&lt;span style=&quot;box-sizing: border-box; color: rgb(53, 55, 64); background-color: var(--green-100);&quot; data-offset-key=&quot;3qlg5-580-0&quot;&gt; predicts&lt;/span&gt;&lt;span style=&quot;box-sizing: border-box; color: rgb(53, 55, 64); background-color: var(--green-100);&quot; data-offset-key=&quot;3qlg5-581-0&quot;&gt; emotion&lt;/span&gt;&lt;span style=&quot;box-sizing: border-box; color: rgb(53, 55, 64); background-color: var(--green-100);&quot; data-offset-key=&quot;3qlg5-582-0&quot;&gt;.&lt;/span&gt;&lt;/font&gt;" style="rounded=0;whiteSpace=wrap;html=1;align=center;" parent="1" vertex="1">
          <mxGeometry x="640" y="200" width="190" height="120" as="geometry" />
        </mxCell>
        <mxCell id="jq3C0dGj3O8HrgGFiJko-5" value="&lt;font face=&quot;Tahoma&quot; style=&quot;font-size: 11px;&quot;&gt;&lt;font style=&quot;&quot;&gt;Web&lt;span style=&quot;box-sizing: border-box; color: rgb(53, 55, 64); background-color: var(--green-100);&quot; data-offset-key=&quot;3qlg5-617-0&quot;&gt; App(UI)&lt;/span&gt;&lt;span style=&quot;box-sizing: border-box; color: rgb(53, 55, 64); background-color: var(--green-100);&quot; data-offset-key=&quot;3qlg5-618-0&quot;&gt;:&lt;/span&gt;&lt;/font&gt;&lt;span style=&quot;box-sizing: border-box; color: rgb(53, 55, 64); background-color: var(--green-100);&quot; data-offset-key=&quot;3qlg5-619-0&quot;&gt;&lt;br&gt;&lt;br&gt;&lt;/span&gt;&lt;font style=&quot;&quot;&gt;&lt;span style=&quot;box-sizing: border-box; color: rgb(53, 55, 64); background-color: var(--green-100);&quot; data-offset-key=&quot;3qlg5-620-0&quot;&gt;The&lt;/span&gt;&lt;span style=&quot;box-sizing: border-box; color: rgb(53, 55, 64); background-color: var(--green-100);&quot; data-offset-key=&quot;3qlg5-621-0&quot;&gt; web&lt;/span&gt;&lt;span style=&quot;box-sizing: border-box; color: rgb(53, 55, 64); background-color: var(--green-100);&quot; data-offset-key=&quot;3qlg5-622-0&quot;&gt; app&lt;/span&gt;&lt;span style=&quot;box-sizing: border-box; color: rgb(53, 55, 64); background-color: var(--green-100);&quot; data-offset-key=&quot;3qlg5-623-0&quot;&gt; is&lt;/span&gt;&lt;span style=&quot;box-sizing: border-box; color: rgb(53, 55, 64); background-color: var(--green-100);&quot; data-offset-key=&quot;3qlg5-624-0&quot;&gt; a&lt;/span&gt;&lt;span style=&quot;box-sizing: border-box; color: rgb(53, 55, 64); background-color: var(--green-100);&quot; data-offset-key=&quot;3qlg5-625-0&quot;&gt; Flask&lt;/span&gt;&lt;span style=&quot;box-sizing: border-box; color: rgb(53, 55, 64); background-color: var(--green-100);&quot; data-offset-key=&quot;3qlg5-626-0&quot;&gt; application&lt;/span&gt;&lt;span style=&quot;box-sizing: border-box; color: rgb(53, 55, 64); background-color: var(--green-100);&quot; data-offset-key=&quot;3qlg5-627-0&quot;&gt; which&lt;/span&gt;&lt;span style=&quot;box-sizing: border-box; color: rgb(53, 55, 64); background-color: var(--green-100);&quot; data-offset-key=&quot;3qlg5-628-0&quot;&gt; displays&lt;/span&gt;&lt;span style=&quot;box-sizing: border-box; color: rgb(53, 55, 64); background-color: var(--green-100);&quot; data-offset-key=&quot;3qlg5-629-0&quot;&gt; the&lt;/span&gt;&lt;span style=&quot;box-sizing: border-box; color: rgb(53, 55, 64); background-color: var(--green-100);&quot; data-offset-key=&quot;3qlg5-630-0&quot;&gt; recommended&lt;/span&gt;&lt;span style=&quot;box-sizing: border-box; color: rgb(53, 55, 64); background-color: var(--green-100);&quot; data-offset-key=&quot;3qlg5-631-0&quot;&gt; play&lt;/span&gt;&lt;span style=&quot;box-sizing: border-box; color: rgb(53, 55, 64); background-color: var(--green-100);&quot; data-offset-key=&quot;3qlg5-632-0&quot;&gt;lists&lt;/span&gt;&lt;span style=&quot;box-sizing: border-box; color: rgb(53, 55, 64); background-color: var(--green-100);&quot; data-offset-key=&quot;3qlg5-633-0&quot;&gt;.&lt;/span&gt;&lt;span style=&quot;box-sizing: border-box; color: rgb(53, 55, 64); background-color: var(--green-100);&quot; data-offset-key=&quot;3qlg5-634-0&quot;&gt; It&lt;/span&gt;&lt;span style=&quot;box-sizing: border-box; color: rgb(53, 55, 64); background-color: var(--green-100);&quot; data-offset-key=&quot;3qlg5-635-0&quot;&gt; also&lt;/span&gt;&lt;span style=&quot;box-sizing: border-box; color: rgb(53, 55, 64); background-color: var(--green-100);&quot; data-offset-key=&quot;3qlg5-636-0&quot;&gt; contains&lt;/span&gt;&lt;span style=&quot;box-sizing: border-box; color: rgb(53, 55, 64); background-color: var(--green-100);&quot; data-offset-key=&quot;3qlg5-637-0&quot;&gt; features&lt;/span&gt;&lt;span style=&quot;box-sizing: border-box; color: rgb(53, 55, 64); background-color: var(--green-100);&quot; data-offset-key=&quot;3qlg5-638-0&quot;&gt; like&lt;/span&gt;&lt;span style=&quot;box-sizing: border-box; color: rgb(53, 55, 64); background-color: var(--green-100);&quot; data-offset-key=&quot;3qlg5-639-0&quot;&gt; pause&lt;/span&gt;&lt;span style=&quot;box-sizing: border-box; color: rgb(53, 55, 64); background-color: var(--green-100);&quot; data-offset-key=&quot;3qlg5-640-0&quot;&gt;/&lt;/span&gt;&lt;span style=&quot;box-sizing: border-box; color: rgb(53, 55, 64); background-color: var(--green-100);&quot; data-offset-key=&quot;3qlg5-641-0&quot;&gt;play&lt;/span&gt;&lt;span style=&quot;box-sizing: border-box; color: rgb(53, 55, 64); background-color: var(--green-100);&quot; data-offset-key=&quot;3qlg5-642-0&quot;&gt;,&lt;/span&gt;&lt;span style=&quot;box-sizing: border-box; color: rgb(53, 55, 64); background-color: var(--green-100);&quot; data-offset-key=&quot;3qlg5-643-0&quot;&gt; mute&lt;/span&gt;&lt;span style=&quot;box-sizing: border-box; color: rgb(53, 55, 64); background-color: var(--green-100);&quot; data-offset-key=&quot;3qlg5-644-0&quot;&gt;/&lt;/span&gt;&lt;span style=&quot;box-sizing: border-box; color: rgb(53, 55, 64); background-color: var(--green-100);&quot; data-offset-key=&quot;3qlg5-645-0&quot;&gt;un&lt;/span&gt;&lt;span style=&quot;box-sizing: border-box; color: rgb(53, 55, 64); background-color: var(--green-100);&quot; data-offset-key=&quot;3qlg5-646-0&quot;&gt;m&lt;/span&gt;&lt;span style=&quot;box-sizing: border-box; color: rgb(53, 55, 64); background-color: var(--green-100);&quot; data-offset-key=&quot;3qlg5-647-0&quot;&gt;ute&lt;/span&gt;&lt;span style=&quot;box-sizing: border-box; color: rgb(53, 55, 64); background-color: var(--green-100);&quot; data-offset-key=&quot;3qlg5-648-0&quot;&gt;.&lt;/span&gt;&lt;/font&gt;&lt;/font&gt;" style="rounded=0;whiteSpace=wrap;html=1;align=center;" parent="1" vertex="1">
          <mxGeometry x="650" y="590" width="180" height="140" as="geometry" />
        </mxCell>
        <mxCell id="jq3C0dGj3O8HrgGFiJko-6" value="" style="endArrow=classic;html=1;rounded=0;entryX=0.25;entryY=0.083;entryDx=0;entryDy=0;entryPerimeter=0;" parent="1" target="jq3C0dGj3O8HrgGFiJko-1" edge="1">
          <mxGeometry width="50" height="50" relative="1" as="geometry">
            <mxPoint x="220" y="260" as="sourcePoint" />
            <mxPoint x="440" y="340" as="targetPoint" />
            <Array as="points">
              <mxPoint x="310" y="260" />
              <mxPoint x="400" y="260" />
            </Array>
          </mxGeometry>
        </mxCell>
        <mxCell id="jq3C0dGj3O8HrgGFiJko-7" value="" style="endArrow=classic;html=1;rounded=0;exitX=0;exitY=0.5;exitDx=0;exitDy=0;" parent="1" source="jq3C0dGj3O8HrgGFiJko-4" edge="1">
          <mxGeometry width="50" height="50" relative="1" as="geometry">
            <mxPoint x="490" y="300" as="sourcePoint" />
            <mxPoint x="520" y="360" as="targetPoint" />
            <Array as="points">
              <mxPoint x="520" y="260" />
            </Array>
          </mxGeometry>
        </mxCell>
        <mxCell id="jq3C0dGj3O8HrgGFiJko-8" value="" style="endArrow=classic;html=1;rounded=0;entryX=0.25;entryY=0.958;entryDx=0;entryDy=0;entryPerimeter=0;" parent="1" target="jq3C0dGj3O8HrgGFiJko-1" edge="1">
          <mxGeometry width="50" height="50" relative="1" as="geometry">
            <mxPoint x="230" y="650" as="sourcePoint" />
            <mxPoint x="280" y="600" as="targetPoint" />
            <Array as="points">
              <mxPoint x="400" y="650" />
            </Array>
          </mxGeometry>
        </mxCell>
        <mxCell id="jq3C0dGj3O8HrgGFiJko-9" value="" style="endArrow=classic;html=1;rounded=0;entryX=0.75;entryY=0.95;entryDx=0;entryDy=0;entryPerimeter=0;" parent="1" target="jq3C0dGj3O8HrgGFiJko-1" edge="1">
          <mxGeometry width="50" height="50" relative="1" as="geometry">
            <mxPoint x="640" y="670" as="sourcePoint" />
            <mxPoint x="600" y="600" as="targetPoint" />
            <Array as="points">
              <mxPoint x="520" y="670" />
            </Array>
          </mxGeometry>
        </mxCell>
        <mxCell id="jq3C0dGj3O8HrgGFiJko-10" value="&lt;font style=&quot;font-size: 24px;&quot;&gt;CONTEXT DIAGRAM&amp;nbsp;&lt;/font&gt;" style="text;html=1;strokeColor=none;fillColor=none;align=center;verticalAlign=middle;whiteSpace=wrap;rounded=0;" parent="1" vertex="1">
          <mxGeometry x="175" y="144" width="520" height="30" as="geometry" />
        </mxCell>
        <mxCell id="jq3C0dGj3O8HrgGFiJko-11" value="By:: Vamsi, Asvad and Biswanth&amp;nbsp;&lt;span id=&quot;docs-internal-guid-29462432-7fff-435d-e1a3-7528fffceb91&quot;&gt;&lt;/span&gt;&lt;span id=&quot;docs-internal-guid-29462432-7fff-435d-e1a3-7528fffceb91&quot;&gt;&lt;/span&gt;" style="text;html=1;strokeColor=none;fillColor=none;align=center;verticalAlign=middle;whiteSpace=wrap;rounded=0;" parent="1" vertex="1">
          <mxGeometry x="310" y="720" width="300" height="30" as="geometry" />
        </mxCell>
        <mxCell id="QMQYomuBGch182ric8O7-3" value="&lt;div style=&quot;&quot;&gt;&lt;font style=&quot;font-size: 11px;&quot; face=&quot;Tahoma&quot;&gt;&lt;span style=&quot;background-color: var(--green-100);&quot;&gt;Login and user authentication&lt;/span&gt;&lt;span style=&quot;background-color: var(--green-100); color: rgb(53, 55, 64);&quot;&gt;:&lt;/span&gt;&lt;/font&gt;&lt;/div&gt;&lt;span style=&quot;box-sizing: border-box; background-color: var(--green-100);&quot; data-offset-key=&quot;3qlg5-520-0&quot;&gt;&lt;font style=&quot;font-size: 11px;&quot; face=&quot;Tahoma&quot;&gt;&lt;br&gt;&lt;div style=&quot;&quot;&gt;&lt;span style=&quot;background-color: initial;&quot;&gt;&lt;font style=&quot;&quot; color=&quot;#353740&quot;&gt;The user logins into his account and there we will authenticate the login.&lt;/font&gt;&lt;/span&gt;&lt;/div&gt;&lt;/font&gt;&lt;/span&gt;" style="rounded=0;whiteSpace=wrap;html=1;align=center;" vertex="1" parent="1">
          <mxGeometry x="50" y="200" width="170" height="140" as="geometry" />
        </mxCell>
        <mxCell id="QMQYomuBGch182ric8O7-6" style="edgeStyle=orthogonalEdgeStyle;rounded=0;orthogonalLoop=1;jettySize=auto;html=1;entryX=1.013;entryY=0.421;entryDx=0;entryDy=0;entryPerimeter=0;" edge="1" parent="1" source="QMQYomuBGch182ric8O7-5" target="jq3C0dGj3O8HrgGFiJko-1">
          <mxGeometry relative="1" as="geometry" />
        </mxCell>
        <mxCell id="QMQYomuBGch182ric8O7-5" value="&lt;font face=&quot;Tahoma&quot;&gt;&lt;span style=&quot;font-size: 11px;&quot;&gt;Database:&lt;br&gt;&lt;br&gt;database to store the user information and his preferences.&lt;br&gt;&lt;/span&gt;&lt;/font&gt;" style="rounded=0;whiteSpace=wrap;html=1;align=center;" vertex="1" parent="1">
          <mxGeometry x="645" y="390" width="190" height="120" as="geometry" />
        </mxCell>
      </root>
    </mxGraphModel>
  </diagram>
</mxfile>
